<mxfile host="65bd71144e" modified="2020-12-18T13:54:19.103Z" agent="5.0 (Windows NT 10.0; Win64; x64) AppleWebKit/537.36 (KHTML, like Gecko) Code/1.52.1 Chrome/83.0.4103.122 Electron/9.3.5 Safari/537.36" etag="NciD_Vr42F5CHX9dzzhx" version="13.10.0" type="embed">
    <diagram id="29kbRAlh68MggSC3cW_3" name="Page-1">
        <mxGraphModel dx="1025" dy="455" grid="1" gridSize="10" guides="1" tooltips="1" connect="1" arrows="1" fold="1" page="1" pageScale="1" pageWidth="827" pageHeight="1169" background="#ffffff" math="0" shadow="0">
            <root>
                <mxCell id="0"/>
                <mxCell id="1" parent="0"/>
                <mxCell id="33" value="" style="edgeStyle=orthogonalEdgeStyle;rounded=0;orthogonalLoop=1;jettySize=auto;html=1;fontColor=#000000;strokeColor=#000000;fontStyle=1" edge="1" parent="1" target="43">
                    <mxGeometry relative="1" as="geometry">
                        <mxPoint x="130" y="141" as="sourcePoint"/>
                    </mxGeometry>
                </mxCell>
                <mxCell id="34" value="" style="edgeStyle=none;rounded=0;orthogonalLoop=1;jettySize=auto;html=1;strokeColor=#000000;fontColor=#000000;fontStyle=1" edge="1" parent="1" source="35" target="40">
                    <mxGeometry relative="1" as="geometry"/>
                </mxCell>
                <mxCell id="35" value="&lt;font size=&quot;1&quot;&gt;&lt;span style=&quot;font-size: 15px&quot;&gt;F&lt;/span&gt;&lt;/font&gt;" style="ellipse;whiteSpace=wrap;html=1;fillColor=none;strokeColor=#000000;strokeWidth=2;fontColor=#000000;fontStyle=1" vertex="1" parent="1">
                    <mxGeometry x="228" y="161" width="40" height="40" as="geometry"/>
                </mxCell>
                <mxCell id="36" style="edgeStyle=none;rounded=0;orthogonalLoop=1;jettySize=auto;html=1;strokeColor=#000000;fontColor=#000000;fontStyle=1" edge="1" parent="1" source="37" target="39">
                    <mxGeometry relative="1" as="geometry"/>
                </mxCell>
                <mxCell id="37" value="&lt;font size=&quot;1&quot;&gt;&lt;span style=&quot;font-size: 15px&quot;&gt;C&lt;/span&gt;&lt;/font&gt;" style="ellipse;whiteSpace=wrap;html=1;fillColor=none;strokeColor=#000000;strokeWidth=2;fontColor=#000000;fontStyle=1" vertex="1" parent="1">
                    <mxGeometry x="228" y="81" width="40" height="40" as="geometry"/>
                </mxCell>
                <mxCell id="38" value="" style="edgeStyle=none;rounded=0;orthogonalLoop=1;jettySize=auto;html=1;strokeColor=#000000;fontColor=#000000;fontStyle=1" edge="1" parent="1" source="39" target="44">
                    <mxGeometry relative="1" as="geometry"/>
                </mxCell>
                <mxCell id="39" value="&lt;font size=&quot;1&quot;&gt;&lt;span style=&quot;font-size: 15px&quot;&gt;D&lt;/span&gt;&lt;/font&gt;" style="ellipse;whiteSpace=wrap;html=1;fillColor=none;strokeColor=#000000;strokeWidth=2;fontColor=#000000;fontStyle=1" vertex="1" parent="1">
                    <mxGeometry x="318" y="81" width="40" height="40" as="geometry"/>
                </mxCell>
                <mxCell id="40" value="&lt;font size=&quot;1&quot;&gt;&lt;span style=&quot;font-size: 15px&quot;&gt;G&lt;/span&gt;&lt;/font&gt;" style="ellipse;whiteSpace=wrap;html=1;fillColor=none;strokeColor=#000000;strokeWidth=2;fontColor=#000000;fontStyle=1" vertex="1" parent="1">
                    <mxGeometry x="318" y="161" width="40" height="40" as="geometry"/>
                </mxCell>
                <mxCell id="41" style="rounded=0;orthogonalLoop=1;jettySize=auto;html=1;entryX=0;entryY=0.5;entryDx=0;entryDy=0;strokeColor=#000000;fontColor=#000000;fontStyle=1" edge="1" parent="1" source="43" target="37">
                    <mxGeometry relative="1" as="geometry"/>
                </mxCell>
                <mxCell id="42" style="edgeStyle=none;rounded=0;orthogonalLoop=1;jettySize=auto;html=1;strokeColor=#000000;fontColor=#000000;entryX=0;entryY=0.5;entryDx=0;entryDy=0;fontStyle=1" edge="1" parent="1" source="43" target="35">
                    <mxGeometry relative="1" as="geometry">
                        <mxPoint x="220" y="181" as="targetPoint"/>
                    </mxGeometry>
                </mxCell>
                <mxCell id="43" value="&lt;span style=&quot;font-size: 15px&quot;&gt;&lt;span&gt;B&lt;/span&gt;&lt;/span&gt;" style="ellipse;whiteSpace=wrap;html=1;fillColor=none;strokeColor=#000000;strokeWidth=2;fontColor=#000000;fontStyle=1" vertex="1" parent="1">
                    <mxGeometry x="160" y="121" width="40" height="40" as="geometry"/>
                </mxCell>
                <mxCell id="44" value="&lt;font size=&quot;1&quot;&gt;&lt;span style=&quot;font-size: 15px&quot;&gt;E&lt;/span&gt;&lt;/font&gt;" style="ellipse;whiteSpace=wrap;html=1;fillColor=none;strokeColor=#000000;strokeWidth=2;fontColor=#000000;fontStyle=1" vertex="1" parent="1">
                    <mxGeometry x="414" y="81" width="40" height="40" as="geometry"/>
                </mxCell>
                <mxCell id="45" value="&lt;font size=&quot;1&quot;&gt;&lt;span style=&quot;font-size: 15px&quot;&gt;A&lt;/span&gt;&lt;/font&gt;" style="ellipse;whiteSpace=wrap;html=1;fillColor=none;strokeColor=#000000;strokeWidth=2;fontColor=#000000;fontStyle=1" vertex="1" parent="1">
                    <mxGeometry x="90" y="121" width="40" height="40" as="geometry"/>
                </mxCell>
                <mxCell id="46" value="" style="edgeStyle=orthogonalEdgeStyle;rounded=0;orthogonalLoop=1;jettySize=auto;html=1;fontColor=#000000;strokeColor=#000000;fontStyle=1" edge="1" parent="1" target="56">
                    <mxGeometry relative="1" as="geometry">
                        <mxPoint x="130" y="141" as="sourcePoint"/>
                    </mxGeometry>
                </mxCell>
                <mxCell id="47" value="" style="edgeStyle=none;rounded=0;orthogonalLoop=1;jettySize=auto;html=1;strokeColor=#000000;fontColor=#000000;fontStyle=1" edge="1" parent="1" source="48" target="53">
                    <mxGeometry relative="1" as="geometry"/>
                </mxCell>
                <mxCell id="48" value="&lt;font size=&quot;1&quot;&gt;&lt;span style=&quot;font-size: 15px&quot;&gt;F&lt;/span&gt;&lt;/font&gt;" style="ellipse;whiteSpace=wrap;html=1;fillColor=none;strokeColor=#000000;strokeWidth=2;fontColor=#000000;fontStyle=1" vertex="1" parent="1">
                    <mxGeometry x="228" y="161" width="40" height="40" as="geometry"/>
                </mxCell>
                <mxCell id="49" style="edgeStyle=none;rounded=0;orthogonalLoop=1;jettySize=auto;html=1;strokeColor=#000000;fontColor=#000000;fontStyle=1" edge="1" parent="1" source="50" target="52">
                    <mxGeometry relative="1" as="geometry"/>
                </mxCell>
                <mxCell id="50" value="&lt;font size=&quot;1&quot;&gt;&lt;span style=&quot;font-size: 15px&quot;&gt;C&lt;/span&gt;&lt;/font&gt;" style="ellipse;whiteSpace=wrap;html=1;fillColor=none;strokeColor=#000000;strokeWidth=2;fontColor=#000000;fontStyle=1" vertex="1" parent="1">
                    <mxGeometry x="228" y="81" width="40" height="40" as="geometry"/>
                </mxCell>
                <mxCell id="51" value="" style="edgeStyle=none;rounded=0;orthogonalLoop=1;jettySize=auto;html=1;strokeColor=#000000;fontColor=#000000;fontStyle=1" edge="1" parent="1" source="52" target="57">
                    <mxGeometry relative="1" as="geometry"/>
                </mxCell>
                <mxCell id="52" value="&lt;font size=&quot;1&quot;&gt;&lt;span style=&quot;font-size: 15px&quot;&gt;D&lt;/span&gt;&lt;/font&gt;" style="ellipse;whiteSpace=wrap;html=1;fillColor=none;strokeColor=#000000;strokeWidth=2;fontColor=#000000;fontStyle=1" vertex="1" parent="1">
                    <mxGeometry x="318" y="81" width="40" height="40" as="geometry"/>
                </mxCell>
                <mxCell id="63" style="edgeStyle=orthogonalEdgeStyle;rounded=0;orthogonalLoop=1;jettySize=auto;html=1;entryX=0.5;entryY=1;entryDx=0;entryDy=0;strokeColor=#000000;exitX=0.972;exitY=0.5;exitDx=0;exitDy=0;exitPerimeter=0;" edge="1" parent="1" source="53" target="61">
                    <mxGeometry relative="1" as="geometry"/>
                </mxCell>
                <mxCell id="53" value="&lt;font size=&quot;1&quot;&gt;&lt;span style=&quot;font-size: 15px&quot;&gt;G&lt;/span&gt;&lt;/font&gt;" style="ellipse;whiteSpace=wrap;html=1;fillColor=none;strokeColor=#000000;strokeWidth=2;fontColor=#000000;fontStyle=1" vertex="1" parent="1">
                    <mxGeometry x="318" y="161" width="40" height="40" as="geometry"/>
                </mxCell>
                <mxCell id="54" style="rounded=0;orthogonalLoop=1;jettySize=auto;html=1;entryX=0;entryY=0.5;entryDx=0;entryDy=0;strokeColor=#000000;fontColor=#000000;fontStyle=1" edge="1" parent="1" source="56" target="50">
                    <mxGeometry relative="1" as="geometry"/>
                </mxCell>
                <mxCell id="55" style="edgeStyle=none;rounded=0;orthogonalLoop=1;jettySize=auto;html=1;strokeColor=#000000;fontColor=#000000;entryX=0;entryY=0.5;entryDx=0;entryDy=0;fontStyle=1" edge="1" parent="1" source="56" target="48">
                    <mxGeometry relative="1" as="geometry">
                        <mxPoint x="220" y="181" as="targetPoint"/>
                    </mxGeometry>
                </mxCell>
                <mxCell id="56" value="&lt;span style=&quot;font-size: 15px&quot;&gt;&lt;span&gt;B&lt;/span&gt;&lt;/span&gt;" style="ellipse;whiteSpace=wrap;html=1;fillColor=none;strokeColor=#000000;strokeWidth=2;fontColor=#000000;fontStyle=1" vertex="1" parent="1">
                    <mxGeometry x="160" y="121" width="40" height="40" as="geometry"/>
                </mxCell>
                <mxCell id="62" style="rounded=0;orthogonalLoop=1;jettySize=auto;html=1;entryX=0;entryY=0.5;entryDx=0;entryDy=0;strokeColor=#000000;" edge="1" parent="1" source="57" target="61">
                    <mxGeometry relative="1" as="geometry"/>
                </mxCell>
                <mxCell id="57" value="&lt;font size=&quot;1&quot;&gt;&lt;span style=&quot;font-size: 15px&quot;&gt;E&lt;/span&gt;&lt;/font&gt;" style="ellipse;whiteSpace=wrap;html=1;fillColor=none;strokeColor=#000000;strokeWidth=2;fontColor=#000000;fontStyle=1" vertex="1" parent="1">
                    <mxGeometry x="414" y="81" width="40" height="40" as="geometry"/>
                </mxCell>
                <mxCell id="58" value="&lt;font color=&quot;#000000&quot; style=&quot;font-size: 14px;&quot;&gt;master&lt;/font&gt;" style="text;html=1;align=center;verticalAlign=middle;resizable=0;points=[];autosize=1;fontSize=14;fontStyle=1" vertex="1" parent="1">
                    <mxGeometry x="580" y="70" width="60" height="20" as="geometry"/>
                </mxCell>
                <mxCell id="59" value="&lt;font color=&quot;#000000&quot; style=&quot;font-size: 14px&quot;&gt;DTS&lt;/font&gt;" style="text;html=1;align=center;verticalAlign=middle;resizable=0;points=[];autosize=1;fontSize=14;fontStyle=1" vertex="1" parent="1">
                    <mxGeometry x="580" y="130" width="40" height="20" as="geometry"/>
                </mxCell>
                <mxCell id="61" value="&lt;font size=&quot;1&quot;&gt;&lt;span style=&quot;font-size: 15px&quot;&gt;H&lt;/span&gt;&lt;/font&gt;" style="ellipse;whiteSpace=wrap;html=1;fillColor=none;strokeColor=#000000;strokeWidth=2;fontColor=#000000;fontStyle=1" vertex="1" parent="1">
                    <mxGeometry x="520" y="81" width="40" height="40" as="geometry"/>
                </mxCell>
            </root>
        </mxGraphModel>
    </diagram>
</mxfile>